<svg width="1440" height="247" viewBox="0 0 1440 247" fill="none" xmlns="http://www.w3.org/2000/svg">
<path d="M1451.07 252H-3.92741C-83.0637 226.378 -188.958 141.471 -68.7922 118.824C81.4155 90.5138 170.129 131.724 401.489 147.133C632.849 162.543 560.77 122.945 803.219 67.5792C997.178 23.2869 1309.94 22.4202 1451.07 35.5001V252Z" fill="url(#paint0_linear_1_1824)"/>
<path d="M1445 245.5L0.000225407 245.5C-68.7767 216.425 -172.382 119.925 -44.8358 103.225C114.597 82.3498 187.008 127.288 410.421 153.474C633.834 179.659 577.294 137.102 838.264 93.8483C1047.04 59.2451 1310.1 120.388 1445 140L1445 245.5Z" fill="url(#paint1_linear_1_1824)"/>
<path d="M1566.17 247L-13.9997 247C-82.7766 217.925 -45.3819 86.9243 82.1641 70.2244C241.597 49.3496 314.009 94.2881 537.421 120.473C760.834 146.659 704.295 104.102 965.265 60.848C1174.04 26.2448 1496.04 56.817 1630.95 76.4285L1566.17 247Z" fill="url(#paint2_linear_1_1824)"/>
<defs>
<linearGradient id="paint0_linear_1_1824" x1="675.573" y1="38.0001" x2="675.573" y2="224" gradientUnits="userSpaceOnUse">
<stop stop-color="#FBAB34" stop-opacity="0.2"/>
<stop offset="1" stop-color="#FBAB34" stop-opacity="0"/>
</linearGradient>
<linearGradient id="paint1_linear_1_1824" x1="722.917" y1="58.5645" x2="713.991" y2="245.346" gradientUnits="userSpaceOnUse">
<stop stop-color="#FBAB34" stop-opacity="0.2"/>
<stop offset="1" stop-color="#FBAB34" stop-opacity="0"/>
</linearGradient>
<linearGradient id="paint2_linear_1_1824" x1="849.915" y1="25.5644" x2="840.989" y2="212.346" gradientUnits="userSpaceOnUse">
<stop stop-color="#FBAB34" stop-opacity="0.2"/>
<stop offset="1" stop-color="#FBAB34" stop-opacity="0"/>
</linearGradient>
</defs>
</svg>
