<svg width="64" height="64" viewBox="0 0 64 64" fill="none" xmlns="http://www.w3.org/2000/svg">
<path fill-rule="evenodd" clip-rule="evenodd" d="M13.3335 6.5C9.55839 6.5 6.50015 9.55824 6.50015 13.3333V38.7784C4.94044 39.3808 3.8335 40.895 3.8335 42.6667V45.3333C3.8335 47.6338 5.69974 49.5 8.00016 49.5H38.5002V53.3333C38.5002 55.6338 40.3664 57.5 42.6668 57.5H56.0002C58.3006 57.5 60.1668 55.6338 60.1668 53.3333V30.6667C60.1668 28.3662 58.3006 26.5 56.0002 26.5H54.8335V13.3333C54.8335 9.55824 51.7752 6.5 48.0001 6.5H13.3335ZM57.1668 46.5V30.6667C57.1668 30.0231 56.6437 29.5 56.0002 29.5H42.6668C42.0232 29.5 41.5002 30.0231 41.5002 30.6667V39.9941L41.5002 40L41.5002 40.0059V46.5H57.1668ZM41.5002 49.5H57.1668V53.3333C57.1668 53.9769 56.6437 54.5 56.0002 54.5H42.6668C42.0232 54.5 41.5002 53.9769 41.5002 53.3333V49.5ZM51.8335 13.3333V26.5H42.6668C40.3664 26.5 38.5002 28.3662 38.5002 30.6667V38.5H9.50015V13.3333C9.50015 11.2151 11.2152 9.5 13.3335 9.5H48.0001C50.1184 9.5 51.8335 11.2151 51.8335 13.3333ZM8.00016 41.5H38.5002V46.5H8.00016C7.35659 46.5 6.8335 45.9769 6.8335 45.3333V42.6667C6.8335 42.0231 7.35659 41.5 8.00016 41.5Z" fill="#FBAB34"/>
</svg>
